PathFileType	4	(X/Y/Z)	Run_300 01
DataRate	CameraRate	NumFrames	NumMarkers	Units	OrigDataRate	OrigDataStartFrame	OrigNumFrames
100	100	7	42	mm	100	271	128
Frame#	Time	LASI			RASI			LPSI			RPSI			RTH1			RTH2			RTH3			LTH1			LTH2			LTH3			RTB1			RTB2			RTB3			LTB1			LTB2			LTB3			RCAL			RTOE			RMT5			LCAL			LTOE			LACR			RACR			CLAV			C7			RUA1			RUA2			RUA3			RLEL			RMEL			LUA1			LUA2			LUA3			LLEL			LMEL			RFAsuperior			RFAradius			RFAulna			LFAsuperior			LFAradius			LFAulna			LMT5		
		X1	Y1	Z1	X2	Y2	Z2	X3	Y3	Z3	X4	Y4	Z4	X5	Y5	Z5	X6	Y6	Z6	X7	Y7	Z7	X8	Y8	Z8	X9	Y9	Z9	X10	Y10	Z10	X11	Y11	Z11	X12	Y12	Z12	X13	Y13	Z13	X14	Y14	Z14	X15	Y15	Z15	X16	Y16	Z16	X17	Y17	Z17	X18	Y18	Z18	X19	Y19	Z19	X20	Y20	Z20	X21	Y21	Z21	X22	Y22	Z22	X23	Y23	Z23	X24	Y24	Z24	X25	Y25	Z25	X26	Y26	Z26	X27	Y27	Z27	X28	Y28	Z28	X29	Y29	Z29	X30	Y30	Z30	X31	Y31	Z31	X32	Y32	Z32	X33	Y33	Z33	X34	Y34	Z34	X35	Y35	Z35	X36	Y36	Z36	X37	Y37	Z37	X38	Y38	Z38	X39	Y39	Z39	X40	Y40	Z40	X41	Y41	Z41	X42	Y42	Z42	

271	  2.710000	730.193883	1072.318103	-465.483430	722.655089	1036.976945	-210.540508	551.529396	1140.396212	-380.524715	553.195808	1134.597751	-295.489945	621.966508	912.113493	-162.834409	629.641922	767.979894	-187.421944	519.242214	693.581918	-204.892480	692.777688	957.020208	-525.832703	799.374076	873.354982	-495.490100	771.401967	717.459454	-485.774926	446.910724	451.691733	-271.522244	343.086624	405.755214	-228.621892	304.152873	311.122234	-290.812461	851.135970	499.911085	-419.015842	788.048855	426.388291	-485.034515	807.076563	298.114237	-405.393716	134.246359	320.994100	-326.014465	246.666148	116.929360	-330.421144	187.074883	114.210065	-254.026522	664.115029	168.953261	-388.171054	891.283409	130.522211	-381.763544	685.518897	1605.415484	-490.935988	703.123155	1570.594451	-164.336147	770.753007	1540.239879	-316.048428	633.512457	1613.359459	-341.528428	654.464280	1463.838974	-77.888892	579.975314	1388.908639	-93.420644	624.462366	1351.954400	-42.468770	618.985589	1256.128135	-16.066736	578.198867	1232.339741	-86.448934	598.632266	1561.463011	-586.607509	510.126729	1519.270898	-575.594098	525.183533	1489.723460	-650.833104	479.250309	1421.011113	-697.886527	419.665175	1418.488214	-646.396231	690.598924	1222.352669	-37.841530	858.459381	1238.840226	-154.715949	848.571177	1171.241528	-131.880529	520.516833	1303.907935	-670.209652	600.187807	1212.662427	-566.442337	544.979698	1181.188096	-589.212916	859.849895	 94.044164	-459.546538	
272	  2.720000	730.524998	1073.398577	-465.718264	725.278280	1038.538760	-211.610399	552.601217	1140.728208	-379.359819	554.932237	1136.743603	-293.973789	626.472221	912.904009	-162.113730	634.468268	768.567268	-187.655473	524.332513	693.600602	-202.904673	691.119538	954.347674	-525.728136	796.789320	868.631194	-495.207839	765.048920	713.203319	-486.246083	444.809135	454.142031	-269.881676	338.603715	413.634640	-227.297554	294.037450	322.456696	-290.507322	849.635350	496.262110	-418.288602	792.567904	417.899639	-483.580181	823.291214	291.732851	-403.762949	123.306539	340.874188	-322.515609	228.566231	133.456198	-335.694199	167.549940	130.635666	-256.009071	691.946115	151.127427	-386.344541	920.989466	131.912308	-375.785832	685.491432	1605.317116	-492.049657	704.004362	1571.508030	-165.175132	771.303909	1540.928913	-317.116099	634.036530	1613.940957	-342.353074	654.598927	1465.334842	-78.835138	579.720241	1390.873416	-94.309012	623.539798	1353.870359	-42.980139	617.725134	1257.980387	-16.637420	576.235406	1234.719387	-86.762748	598.279809	1560.867571	-587.179694	509.892939	1518.389004	-575.530132	524.667285	1488.598052	-650.745547	478.782185	1419.295933	-697.162058	419.554398	1416.615171	-645.340849	688.843868	1223.528698	-39.151875	855.728053	1239.009786	-157.520687	845.815786	1171.668031	-134.355243	521.707784	1303.076531	-668.870204	603.776852	1213.838985	-565.201691	548.455193	1181.546231	-586.579993	894.220392	 90.183547	-452.776108	
273	  2.730000	731.200649	1072.650337	-465.877375	727.880167	1039.264955	-212.264711	553.674063	1139.419254	-378.346477	556.577856	1137.555907	-292.747442	631.416006	912.356651	-161.425043	639.641068	768.010114	-187.460083	530.322362	692.185304	-201.591363	690.209887	951.401266	-525.256453	793.789950	862.705001	-495.102320	757.810019	707.858894	-486.571707	444.362479	455.571596	-268.659269	335.979338	420.968628	-226.141949	285.610839	333.663231	-290.069481	847.292863	492.331243	-417.921344	794.395718	410.415633	-482.037681	836.401990	286.802423	-402.775475	115.410206	361.510941	-320.384329	211.442552	149.892680	-337.846580	150.248785	148.351618	-258.042999	715.732132	137.528233	-383.257497	945.344620	134.289394	-372.107774	685.473923	1603.911880	-493.251182	704.633489	1571.422241	-165.926885	771.671526	1540.461802	-318.059923	634.414065	1613.542687	-343.238876	654.913922	1465.042499	-79.771575	579.106797	1391.781111	-95.323351	622.337373	1354.502567	-43.762005	615.844642	1258.607318	-17.490389	573.902647	1235.998357	-87.521815	598.330335	1558.615743	-588.279571	510.106155	1515.519286	-576.209848	525.005639	1485.434020	-651.309372	479.594488	1415.368527	-697.164729	420.540821	1412.266968	-645.107328	686.086126	1222.938842	-40.327628	852.773564	1236.464375	-159.812877	842.425965	1169.398163	-136.064800	524.320304	1300.149060	-667.905166	608.556819	1213.217190	-564.057707	553.361533	1179.968342	-584.315507	921.719590	 88.065555	-447.792446	
274	  2.740000	732.266284	1070.149169	-465.820299	730.394167	1038.989575	-212.478086	554.689491	1136.830512	-377.521456	558.152953	1136.187606	-292.160144	636.171019	910.721263	-160.773983	644.883760	766.182442	-186.643898	536.927032	689.240519	-200.765995	689.815912	948.034778	-524.609946	790.216774	855.727293	-495.277376	749.801855	701.653442	-486.309064	445.505398	455.889272	-267.412295	335.180408	427.839332	-225.020783	279.121204	344.572430	-289.155340	844.673208	488.484259	-417.605221	794.265808	403.929508	-480.274679	845.964066	283.045740	-402.021244	110.894825	382.502480	-319.756073	195.799878	166.032258	-336.178794	135.931573	167.091643	-259.448123	734.004360	128.065790	-378.309452	963.542105	135.937391	-371.785927	685.433120	1601.176906	-494.583797	704.830026	1570.348606	-166.713376	771.818387	1538.867476	-318.914679	634.527650	1612.083902	-344.279903	655.050820	1463.304420	-80.706995	577.930208	1391.674059	-96.469450	620.710764	1353.933952	-44.770168	613.286976	1257.956698	-18.658399	571.194930	1236.170828	-88.700802	598.716259	1554.697739	-589.892655	510.742218	1510.780255	-577.635729	526.120692	1480.228913	-652.501390	481.622486	1409.277819	-697.988876	422.559296	1405.465037	-645.760847	682.284732	1220.537675	-41.377312	849.632445	1231.297592	-161.411598	838.189402	1164.407760	-137.067742	528.373800	1295.234696	-667.523918	614.480591	1210.873303	-563.057723	559.657409	1176.532487	-582.569979	940.599987	 86.686663	-445.921601	
275	  2.750000	733.392180	1066.090246	-465.575561	732.633634	1037.485284	-212.615167	555.478857	1133.244027	-376.925809	559.423188	1132.608778	-292.112988	640.350119	908.038863	-160.127055	650.230966	763.062272	-185.161092	544.151117	684.729862	-199.956862	689.639288	943.885762	-524.103908	786.186813	847.972967	-495.604747	742.107902	695.117037	-485.681376	448.232627	455.102891	-265.631022	336.159792	434.373124	-223.734772	274.867005	355.143889	-287.761696	841.928995	484.661520	-416.930655	792.892431	398.136728	-478.051405	851.695856	279.690463	-401.082076	109.367674	403.147637	-319.960112	182.452016	182.017954	-331.812135	124.956989	186.703566	-258.906780	745.953352	121.527582	-371.968705	975.226342	135.381754	-374.355444	685.334701	1597.061357	-496.034050	704.485396	1568.201042	-167.561743	771.776454	1536.161470	-319.699942	634.323614	1609.455648	-345.543319	654.609143	1460.775166	-81.456457	576.152616	1390.531240	-97.686565	618.673279	1352.169747	-45.955852	610.099482	1256.089343	-20.020606	568.050178	1235.214107	-90.133277	599.361424	1549.098556	-591.893247	511.746031	1504.216243	-579.748396	527.943598	1472.988401	-654.229606	484.773999	1401.076760	-699.542857	425.555315	1396.324839	-647.316607	677.886545	1216.666113	-42.280053	846.279686	1223.609622	-162.135913	833.084089	1156.924654	-137.298062	533.847655	1288.432351	-667.812324	621.506718	1206.883425	-562.292257	567.329565	1171.316480	-581.453328	950.721416	 84.486601	-446.924945	
276	  2.760000	734.244357	1060.562536	-465.280725	734.404524	1034.699204	-212.883038	555.965308	1128.555891	-376.519713	560.229025	1127.557949	-292.165989	643.970761	904.167978	-159.431541	655.944621	758.841126	-183.085229	552.203837	678.759566	-198.701848	689.399995	938.767842	-524.060092	782.241099	839.944108	-496.070382	736.052579	688.751231	-485.073152	452.609342	453.432149	-263.027287	339.016621	440.617010	-222.082171	273.171116	365.315280	-285.992995	838.965436	480.362252	-415.875761	790.511103	392.532538	-475.532144	853.716691	275.759342	-400.029600	110.580614	422.855595	-320.179149	172.236279	197.874662	-326.377198	116.900358	206.939117	-255.566376	751.617972	116.448720	-365.660514	980.599638	131.526812	-377.931502	685.158727	1591.527296	-497.567403	703.609863	1564.860264	-168.430724	771.603516	1532.378665	-320.360721	633.833273	1605.561019	-347.007039	653.347712	1457.846519	-81.936032	573.917621	1388.304231	-98.908420	616.303907	1349.215991	-47.229714	606.373008	1253.142755	-21.401842	564.412704	1233.112918	-91.631246	600.237361	1541.790500	-594.143796	513.079099	1495.782599	-582.463840	530.470228	1463.758090	-656.417332	488.977932	1390.846229	-701.633620	429.522054	1385.030734	-649.710991	673.455868	1211.889638	-42.953843	842.636517	1213.608596	-161.915690	827.205734	1147.323169	-136.740134	540.624088	1279.821758	-668.632872	629.575940	1201.357954	-561.782705	576.356827	1164.409610	-580.959583	953.376743	 79.737686	-449.029101	
277	  2.770000	734.709677	1053.641049	-465.010713	735.657217	1030.810697	-213.078052	556.162890	1122.550616	-376.167132	560.702821	1121.743178	-291.958303	647.292491	899.066663	-158.610944	662.309538	753.805766	-180.522781	561.277922	671.529000	-196.767566	688.824349	932.778864	-524.513945	779.177252	832.242166	-496.926167	732.225762	682.617818	-484.477427	458.739727	451.131664	-259.610050	343.962097	446.459229	-219.919243	274.236605	374.897965	-283.837176	835.757550	474.918921	-414.904575	787.065032	386.554921	-473.414512	852.451682	270.408470	-399.308677	114.652312	441.290150	-319.971926	165.684808	213.379246	-320.890180	111.160294	227.232960	-249.872307	751.300310	112.092767	-360.943947	980.075559	123.590217	-380.116323	684.945005	1584.613253	-499.189974	702.277423	1560.277997	-169.275916	771.316833	1527.564956	-320.828657	633.162997	1600.371266	-348.564696	651.232908	1454.320956	-82.385394	571.359978	1384.941260	-100.153057	613.574087	1345.097566	-48.500423	602.150145	1249.206944	-22.709874	560.293319	1229.884136	-93.089428	601.407483	1532.776497	-596.576774	514.759366	1485.428454	-585.708501	533.771624	1452.649403	-659.019828	494.252583	1378.736490	-704.147451	434.518035	1371.796333	-652.817362	668.964473	1206.401972	-43.310627	838.589497	1201.619507	-160.786834	820.621044	1135.968673	-135.503975	548.517192	1269.492857	-669.697010	638.590095	1194.440544	-561.391737	586.653267	1155.950036	-580.926354	950.039755	 71.654767	-450.194079	
